MasterChef Australia Series 3 Episode 7

As our Top 24 enter the MasterChef kitchen for the first time, they are surprised to see no judges. Only a few notice the clock has started ticking down. Has the first challenge already begun?

Enjoy!

General
Complete name                    : K:\Torrents\MasterChef\MasterChef.Australia.s03e08.PDTV.XviD-BF1.avi
Format                           : AVI
Format/Info                      : Audio Video Interleave
File size                        : 499 MiB
Duration                         : 42mn 27s
Overall bit rate                 : 1 643 Kbps

Video
ID                               : 0
Format                           : MPEG-4 Visual
Format profile                   : Advanced Simple@L5
Format settings, BVOP            : Yes
Format settings, QPel            : No
Format settings, GMC             : No warppoints
Format settings, Matrix          : Default (H.263)
Codec ID                         : XVID
Codec ID/Hint                    : XviD
Duration                         : 42mn 27s
Bit rate                         : 1 385 Kbps
Width                            : 640 pixels
Height                           : 352 pixels
Display aspect ratio             : 16:9
Frame rate                       : 25.000 fps
Resolution                       : 8 bits
Colorimetry                      : 4:2:0
Scan type                        : Progressive
Bits/(Pixel*Frame)               : 0.246
Stream size                      : 421 MiB (84%)
Writing library                  : XviD 1.2.1 (UTC 2008-12-04)

Audio
ID                               : 1
Format                           : MPEG Audio
Format version                   : Version 1
Format profile                   : Layer 3
Mode                             : Joint stereo
Codec ID                         : 55
Codec ID/Hint                    : MP3
Duration                         : 42mn 27s
Bit rate mode                    : Variable
Bit rate                         : 245 Kbps
Minimum bit rate                 : 32.0 Kbps
Channel(s)                       : 2 channels
Sampling rate                    : 48.0 KHz
Stream size                      : 74.4 MiB (15%)

